# xmcd
#
# Track frame offsets:
#	150
#	9177
#	26224
#	39827
#	66226
#	82982
#	100878
#	114973
#	127287
#	141670
#	160369
#	177440
#	194756
#	212754
#	231390
#
# Disc length: 3254 seconds
#
# Revision: 0
# Processed by: cddbd v1.4PL0 Copyright (c) Steve Scherf et al.
# Submitted via: dBpowerAMP V4.0
#
DISCID=da0cb40f
DTITLE=taesoon - song
DYEAR=2003
DGENRE=Blues
TTITLE0=a
TTITLE1=b
TTITLE2=c
TTITLE3=d
TTITLE4=e
TTITLE5=f
TTITLE6=g
TTITLE7=h
TTITLE8=i
TTITLE9=j
TTITLE10=k
TTITLE11=l
TTITLE12=m
TTITLE13=n
TTITLE14=o
EXTD=song, tae soon
EXTT0=
EXTT1=
EXTT2=
EXTT3=
EXTT4=
EXTT5=
EXTT6=
EXTT7=
EXTT8=
EXTT9=
EXTT10=
EXTT11=
EXTT12=
EXTT13=
EXTT14=
PLAYORDER=
